<svg xmlns="http://www.w3.org/2000/svg" xmlns:xlink="http://www.w3.org/1999/xlink" width="32" height="32" viewBox="0 0 32 32">
  <defs>
    <clipPath id="clip-path">
      <rect id="Rectangle_1969" data-name="Rectangle 1969" width="32" height="32" transform="translate(0 0)" fill="#fff"/>
    </clipPath>
  </defs>
  <g id="Mask_Group_190" data-name="Mask Group 190" transform="translate(0 0)" clip-path="url(#clip-path)">
    <g id="person" transform="translate(5.235 -0.016)">
      <path id="Path_2039" data-name="Path 2039" d="M26.818,29.01v2.733a.557.557,0,0,1-.557.557H5.937a.557.557,0,0,1-.557-.557V29.01a5.191,5.191,0,0,1,5.192-5.19,2.882,2.882,0,0,0,2.419-1.313,3.272,3.272,0,0,0,.463-2.04l.01-.026a6.891,6.891,0,0,1-4.256-6.369v-.218a1.717,1.717,0,0,1-1.74-1.708V9.254a9.634,9.634,0,0,1,2.589-7.032c2.983-2.875,7.711-2.64,11.135-1.1a.14.14,0,0,1,0,.256l-.893.368a.139.139,0,0,0,.038.267l.434.047a7.026,7.026,0,0,1,5.2,3.226.149.149,0,0,1-.018.172A4.211,4.211,0,0,0,24.8,8.349v3.8a1.708,1.708,0,0,1-1.708,1.708h-.1v.218a6.891,6.891,0,0,1-4.256,6.369l.01.026a3.27,3.27,0,0,0,.463,2.04,2.882,2.882,0,0,0,2.419,1.313,5.191,5.191,0,0,1,5.192,5.19Z" transform="translate(-5.381 0)" fill="#ffdfba"/>
      <path id="Path_2040" data-name="Path 2040" d="M26.818,28.8v2.733a.557.557,0,0,1-.557.557H5.937a.557.557,0,0,1-.557-.557V28.8a5.191,5.191,0,0,1,5.191-5.19,2.882,2.882,0,0,0,2.42-1.313,4.778,4.778,0,0,0,6.216,0,2.882,2.882,0,0,0,2.42,1.313,5.191,5.191,0,0,1,5.191,5.19Z" transform="translate(-5.381 0.209)" fill="#fe4f60"/>
      <path id="Path_2041" data-name="Path 2041" d="M25.948,5.284a.148.148,0,0,1-.018.171,4.214,4.214,0,0,0-1.15,2.893v3.8a1.711,1.711,0,0,1-1.81,1.708v-4.3A3.341,3.341,0,0,0,19.63,6.215h-7.1A3.341,3.341,0,0,0,9.189,9.555v4.3a1.717,1.717,0,0,1-1.74-1.708V9.254a9.634,9.634,0,0,1,2.589-7.032c2.983-2.875,7.711-2.64,11.135-1.1a.139.139,0,0,1,0,.256l-.893.368a.139.139,0,0,0,.038.267l.434.047A7.022,7.022,0,0,1,25.948,5.284Z" transform="translate(-5.361 0)" fill="#42434d"/>
      <path id="Path_2042" data-name="Path 2042" d="M22.955,14.015A6.892,6.892,0,1,1,9.173,13.8V9.5a3.341,3.341,0,0,1,3.341-3.341h7.1A3.341,3.341,0,0,1,22.955,9.5Z" transform="translate(-5.345 0.058)" fill="#ffebd2"/>
      <path id="Path_2043" data-name="Path 2043" d="M21.606,30.838h-1.67a.557.557,0,1,1,0-1.114h1.67a.557.557,0,0,1,0,1.114Z" transform="translate(-5.25 0.278)" fill="#fff"/>
      <path id="Path_2044" data-name="Path 2044" d="M14.5,18.454a1.1,1.1,0,0,1-1,1.949A6.892,6.892,0,0,1,9.173,14V9.488A3.326,3.326,0,0,1,9.759,7.6a.823.823,0,0,1,1.5.5v4.517A6.84,6.84,0,0,0,14.5,18.454Z" transform="translate(-5.345 0.068)" fill="#fff3e4"/>
      <path id="Path_2045" data-name="Path 2045" d="M18.749,21.42a6.91,6.91,0,0,1-5.447,0,4.313,4.313,0,0,0,.079-1.143l.01-.026a6.9,6.9,0,0,0,5.269,0l.01.026A4.312,4.312,0,0,0,18.749,21.42Z" transform="translate(-5.306 0.19)" fill="#ffd6a6"/>
      <path id="Path_2046" data-name="Path 2046" d="M13.377,25.292a2.831,2.831,0,0,1-.829.128,5.2,5.2,0,0,0-5.218,5.173v.523a.974.974,0,0,1-.974.974H5.937a.557.557,0,0,1-.557-.557V28.8a5.191,5.191,0,0,1,5.191-5.19,2.882,2.882,0,0,0,2.42-1.313,4.817,4.817,0,0,0,.662.475A1.39,1.39,0,0,1,13.377,25.292Z" transform="translate(-5.381 0.209)" fill="#ff6d7a"/>
      <path id="Path_2047" data-name="Path 2047" d="M18.706,25.292a2.831,2.831,0,0,0,.829.128,5.2,5.2,0,0,1,5.218,5.173v.523a.974.974,0,0,0,.974.974h.418a.557.557,0,0,0,.557-.557V28.8a5.191,5.191,0,0,0-5.191-5.19,2.882,2.882,0,0,1-2.42-1.313,4.817,4.817,0,0,1-.662.475,1.39,1.39,0,0,0,.277,2.519Z" transform="translate(-5.265 0.209)" fill="#e84857"/>
      <path id="Path_2048" data-name="Path 2048" d="M21.169,1.376c-.818.337-.935.411-1.219.367-4.571-.709-8.582,1.183-9.944,5.623h0a3.324,3.324,0,0,0-.817,2.188v2.612a.87.87,0,1,1-1.74-.02V9.254a9.634,9.634,0,0,1,2.589-7.032c2.983-2.875,7.711-2.64,11.135-1.1a.14.14,0,0,1,0,.256Z" transform="translate(-5.361 0)" fill="#4d4e59"/>
    </g>
  </g>
</svg>
