<svg xmlns="http://www.w3.org/2000/svg" xmlns:xlink="http://www.w3.org/1999/xlink" width="24" height="24" viewBox="0 0 24 24"><defs><style>.a{fill:#fff;stroke:#707070;}.b{clip-path:url(#a);}.c{fill:#0a1d3b;}</style><clipPath id="a"><rect class="a" width="24" height="24" transform="translate(69 29)"/></clipPath></defs><g class="b" transform="translate(-69 -29)"><path class="c" d="M16.945,18.375V20.25A3.754,3.754,0,0,1,13.2,24H3.773a3.754,3.754,0,0,1-3.75-3.75V3.75A3.754,3.754,0,0,1,3.773,0H13.2a3.754,3.754,0,0,1,3.75,3.75V5.625a.938.938,0,0,1-1.875,0V3.75A1.877,1.877,0,0,0,13.2,1.875H3.773A1.877,1.877,0,0,0,1.9,3.75v16.5a1.877,1.877,0,0,0,1.875,1.875H13.2A1.877,1.877,0,0,0,15.07,20.25V18.375a.938.938,0,0,1,1.875,0Zm6.392-7.985-2.1-2.1a.937.937,0,0,0-1.326,1.326l1.493,1.493H10.148a.937.937,0,1,0,0,1.875H21.405l-1.493,1.493A.937.937,0,1,0,21.238,15.8l2.1-2.1a2.346,2.346,0,0,0,0-3.315Zm0,0" transform="translate(68.977 29)"/></g></svg>